<?xml version="1.0" standalone="no"?>
<!DOCTYPE svg PUBLIC "-//W3C//DTD SVG 20010904//EN"
 "http://www.w3.org/TR/2001/REC-SVG-20010904/DTD/svg10.dtd">
<svg version="1.0" xmlns="http://www.w3.org/2000/svg"
 width="188.000000pt" height="168.000000pt" viewBox="0 0 188.000000 168.000000"
 preserveAspectRatio="xMidYMid meet">
<metadata>
Created by potrace 1.16, written by Peter Selinger 2001-2019
</metadata>
<g transform="translate(0.000000,168.000000) scale(0.100000,-0.100000)"
fill="#000000" stroke="none">
<path d="M0 840 l0 -840 940 0 940 0 0 840 0 840 -940 0 -940 0 0 -840z m1013
653 c41 -71 97 -169 125 -218 l51 -90 -24 -90 c-13 -49 -22 -91 -19 -94 2 -3
34 2 70 11 l65 15 41 -71 c22 -39 53 -91 68 -116 42 -69 240 -418 240 -425 0
-3 -141 -5 -314 -5 l-314 0 -25 42 c-38 68 -161 279 -264 456 -57 97 -93 168
-89 177 12 32 304 535 310 535 2 0 37 -57 79 -127z m-442 -571 c126 -218 187
-322 262 -452 49 -85 93 -161 99 -167 8 -10 99 -13 393 -13 l383 0 57 -101
c31 -55 55 -102 53 -104 -3 -4 -781 -7 -978 -5 -34 0 -38 4 -88 88 -29 49 -52
91 -52 95 0 6 -96 173 -221 385 -27 46 -49 88 -49 94 0 14 112 208 119 208 3
0 13 -12 22 -28z m-147 -414 l57 -98 -94 -162 -95 -163 -122 -3 c-114 -2 -122
-1 -116 15 18 47 300 523 306 516 3 -4 32 -52 64 -105z m188 -326 l56 -97 -59
-3 c-32 -2 -86 -2 -118 0 l-60 3 56 98 c30 53 58 97 62 97 3 0 31 -44 63 -98z"/>
<path d="M896 1128 l-28 -53 36 -62 c20 -34 41 -65 46 -68 8 -5 53 55 66 89 6
15 -67 146 -81 146 -6 0 -23 -24 -39 -52z"/>
<path d="M1112 760 l-32 -51 25 -39 c25 -39 26 -40 85 -40 33 0 60 4 60 9 0
12 -93 171 -101 171 -3 0 -20 -23 -37 -50z"/>
</g>
</svg>
